Coordinates
version=1
nRows=11
nColumns=36
inDegrees=yes

Units are S.I. units (second, meters, Newtons, ...)
If the header above contains a line with 'inDegrees', this indicates whether rotational values are in degrees (yes) or radians (no).

endheader
time	pelvis_tilt	pelvis_list	pelvis_rotation	pelvis_tx	pelvis_ty	pelvis_tz	hip_flexion_r	hip_adduction_r	hip_rotation_r	knee_angle_r	knee_angle_r_beta	ankle_angle_r	subtalar_angle_r	mtp_angle_r	hip_flexion_l	hip_adduction_l	hip_rotation_l	knee_angle_l	knee_angle_l_beta	ankle_angle_l	subtalar_angle_l	mtp_angle_l	lumbar_extension	lumbar_bending	lumbar_rotation	arm_flex_r	arm_add_r	arm_rot_r	elbow_flex_r	pro_sup_r	arm_flex_l	arm_add_l	arm_rot_l	elbow_flex_l	pro_sup_l
      1.03333330	      2.66661674	     -2.99324505	      3.61492400	      0.12625943	      0.79408971	     -0.06118603	     49.17229393	     -7.83481908	     -0.70334030	     79.14165788	      1.38128251	     23.47853833	     -9.83880464	     -7.49999987	     52.63721099	     -7.61886783	      7.59054566	     80.40732017	      1.40337248	     20.86914798	     -4.81652484	     -7.49999987	    -54.45637413	      2.86041879	      1.92849539	      1.63474321	    -10.73654231	     -1.73980001	     46.08207107	     77.68795157	      2.03590588	     -9.35976424	     -1.06139071	     50.28462606	     70.10466092
      1.03750000	      1.95985698	     -3.00715788	      3.51256657	      0.12736058	      0.79192006	     -0.06019215	     50.41431325	     -7.90220673	     -0.70094241	     79.79709613	      1.39272206	     23.50059085	     -9.72252293	     -7.49999987	     53.65923142	     -7.86785137	      7.51856767	     80.76285977	      1.40957782	     21.20681925	     -4.32493997	     -7.49999987	    -54.22950412	      2.66610917	      1.61674343	      2.11937174	    -10.65720708	     -1.67347960	     46.23701113	     82.63230224	      2.02297161	     -9.54085089	     -1.53047820	     50.94485783	     73.34716724
      1.04166670	      1.47763969	     -2.97584988	      3.37768902	      0.13096097	      0.78870487	     -0.05995078	     51.29071068	     -8.03269651	     -0.66423133	     80.40896758	      1.40340123	     23.54890057	     -9.49470488	     -7.49999987	     54.33545516	     -8.11173175	      7.38104262	     81.21479390	      1.41746555	     21.62957731	     -3.82222044	     -7.49999987	    -54.22256867	      2.47662240	      1.59020542	      2.23995549	    -10.64138953	     -1.76849458	     46.67805813	     82.33062298	      2.07228892	     -9.65686961	     -1.48443650	     51.30226094	     73.18640040
      1.04583330	      1.22997200	     -3.00387473	      3.24652506	      0.12932868	      0.78590440	     -0.06168912	     51.84819176	     -8.17612862	     -0.66388756	     80.80182618	      1.41025791	     23.54729816	     -9.47883263	     -7.49999987	     54.85799893	     -8.19006620	      7.29080502	     81.69265362	      1.42580578	     21.67825565	     -3.82569336	     -7.49999987	    -54.67800230	      2.41422755	      1.57630230	      2.76518023	    -10.72162616	     -1.81916165	     46.80711792	     82.07929822	      2.46891333	     -9.58315893	     -1.44777294	     51.31113411	     73.12843156
      1.05000000	      0.70241004	     -3.02433106	      3.02621540	      0.13303832	      0.78211736	     -0.06108738	     52.69779722	     -8.30545032	     -0.59461420	     81.36965990	      1.42016848	     23.99494005	     -8.95652891	     -7.49999987	     55.65161997	     -8.48400620	      7.10038293	     82.30867268	      1.43655734	     22.32658859	     -2.96139032	     -7.49999987	    -54.63359702	      2.30064104	      1.46735757	      3.06319152	    -10.75687765	     -1.85056383	     46.90025697	     82.10428066	      2.63895192	     -9.47460708	     -1.27370535	     51.00678453	     73.19348283
      1.05416670	      0.46532753	     -3.04390699	      2.90200395	      0.13393987	      0.78265661	     -0.06402538	     52.90049251	     -8.50451601	     -0.64040445	     81.46643694	      1.42185755	     24.19577477	     -8.54582539	     -7.49999987	     55.90527523	     -8.51473994	      6.93500654	     82.63889779	      1.44232086	     22.66038340	     -2.73058816	     -7.49999987	    -55.02178888	      2.39188497	      1.44973297	      3.55067453	    -10.95325169	     -1.93477141	     46.82558306	     81.98019867	      3.06305463	     -9.36953520	     -1.13800937	     50.69147091	     73.13258093
      1.05833330	      0.24892543	     -3.09864660	      2.76001336	      0.13505522	      0.77785485	     -0.06246417	     53.39047823	     -8.66902087	     -0.66705694	     81.95933634	      1.43046027	     24.54204775	     -8.23850061	     -7.49999987	     56.36733167	     -8.71006029	      6.94687748	     83.24845574	      1.45295965	     23.11268450	     -2.38407508	     -7.49999987	    -55.31403858	      2.49497782	      1.59912347	      3.96607295	    -11.14109213	     -2.05238010	     46.62012902	     81.69714460	      3.32241843	     -9.35253606	     -0.92189872	     50.41257036	     73.06145844
      1.06250000	      0.13610935	     -3.14936065	      2.67040497	      0.13907429	      0.77586212	     -0.06337969	     53.66634352	     -8.82470800	     -0.71184372	     82.41802239	      1.43846585	     24.59698847	     -8.23667304	     -7.49999987	     56.66920934	     -8.83708433	      7.00387281	     83.88375457	      1.46404771	     23.29302998	     -2.45114131	     -7.49999987	    -55.83366392	      2.53876514	      1.60834882	      4.29051040	    -11.39802347	     -2.18939518	     46.86184568	     81.49200525	      3.52756337	     -9.43904300	     -0.93480024	     50.58957813	     72.91349908
      1.06666670	     -0.25243319	     -3.33674406	      2.61178627	      0.13876438	      0.77226060	     -0.06397767	     54.37302210	     -9.00294672	     -0.93369659	     83.03640197	      1.44925861	     24.98955890	     -7.51234468	     -7.49999987	     57.54488183	     -9.01293457	      7.18734237	     84.68414131	      1.47801709	     23.82364117	     -1.99712837	     -7.49999987	    -55.81993611	      2.68227397	      1.81631386	      4.60658562	    -11.63458012	     -2.43469248	     46.36129998	     81.55737944	      3.81853312	     -9.35112710	     -0.88192964	     50.17238329	     73.01652387
      1.07083330	     -0.36960453	     -3.44216977	      2.46749413	      0.13798332	      0.77316772	     -0.06404652	     54.66464606	     -9.02916868	     -1.03526773	     83.23607265	      1.45274352	     25.09688366	     -7.09841123	     -7.49999987	     57.85908270	     -9.09895627	      7.25143802	     85.05096902	      1.48441944	     23.85916646	     -1.96230828	     -7.49999987	    -56.34952649	      2.75514864	      1.95529139	      5.09268286	    -11.83982862	     -2.73588627	     46.20111363	     80.26830993	      4.19661999	     -9.38356935	     -0.75089766	     50.12214419	     72.10612286
      1.07500000	     -0.50006419	     -3.45272926	      2.35274465	      0.14210934	      0.77137829	     -0.06513891	     54.80743474	     -9.12052413	     -0.99245055	     83.42235095	      1.45599469	     25.10359719	     -7.02495124	     -7.49999987	     58.08149834	     -9.18097569	      7.15373374	     85.37490384	      1.49007317	     23.90729907	     -2.04989932	     -7.49999987	    -56.86889760	      2.77403192	      1.97543634	      5.38943923	    -12.02544127	     -2.81965134	     46.15731652	     80.27840697	      4.44574634	     -9.45881324	     -0.77752912	     50.09267535	     72.11009719
